<svg version="1.1" id="Layer_1" xmlns="http://www.w3.org/2000/svg" xmlns:xlink="http://www.w3.org/1999/xlink" x="0px" y="0px"
	 width="100%" viewBox="0 0 496 496" enable-background="new 0 0 496 496" xml:space="preserve">
<path fill="#000000" opacity="1.000000" stroke="none" 
	d="
M241.633118,336.650635 
	C213.532227,329.046997 195.111603,300.448395 199.347870,272.071075 
	C200.934784,261.440948 204.370010,251.769928 210.917236,243.239105 
	C212.052719,241.759628 213.059662,240.190399 213.016510,238.269318 
	C212.781067,227.790375 214.380676,217.323883 213.063583,206.828766 
	C212.465714,202.064529 211.467239,197.646973 206.540115,194.717697 
	C208.961319,193.171051 210.976379,193.698120 212.844696,193.679001 
	C226.478363,193.539352 240.158875,194.373810 253.618011,191.198532 
	C267.289856,187.973068 279.216125,181.029877 291.175446,174.043594 
	C304.831818,166.065933 319.067444,159.861603 335.454590,160.649506 
	C350.455902,161.370758 362.118683,169.169678 373.333740,178.024216 
	C373.635712,178.262634 373.619781,178.903732 373.769348,179.416077 
	C371.719238,180.441376 370.578308,178.788879 369.333801,177.952301 
	C363.062927,173.736954 356.020172,172.041290 348.649475,171.291031 
	C332.667175,169.664230 317.565002,173.106628 302.835602,179.015549 
	C288.477356,184.775589 274.236938,190.899979 258.890259,193.761551 
	C252.170609,195.014511 245.397751,195.674988 238.599548,196.194122 
	C236.795212,196.331894 234.476334,196.058792 234.432678,198.638870 
	C234.290070,207.069138 234.379227,215.503311 234.379227,224.666214 
	C241.778000,222.509705 248.306610,220.097168 255.193268,219.096222 
	C277.612030,215.837692 298.439667,219.388824 316.207611,234.244354 
	C330.443634,246.146866 334.381622,266.501831 326.604034,283.414856 
	C323.433289,290.309845 317.724426,294.394562 310.680573,298.148529 
	C313.445801,299.435974 315.664886,300.396240 317.819305,301.484497 
	C329.006500,307.135284 333.574280,315.860168 332.283447,329.022156 
	C331.365814,338.379242 324.083893,346.240631 313.440460,349.376312 
	C309.107971,350.652740 304.721405,351.399231 300.170197,351.377747 
	C286.008331,351.310852 271.845886,351.365540 257.683685,351.372772 
	C255.880768,351.373688 254.077835,351.372894 250.610825,351.372894 
	C259.209686,344.737061 257.913269,336.496338 257.930389,328.639496 
	C257.973236,308.979126 257.911285,289.318512 257.930603,269.658051 
	C257.936157,263.994568 257.330139,258.601349 252.538696,255.145828 
	C252.367493,253.163498 254.237167,253.350006 254.828918,251.764297 
	C250.370026,246.620911 244.377014,244.242294 237.636841,243.359924 
	C235.358521,243.061676 234.258102,244.209152 234.272049,246.542374 
	C234.337738,257.537567 234.180161,268.538422 234.500626,279.525665 
	C234.624283,283.765991 236.901917,287.395874 240.522141,290.078369 
	C240.394455,290.508942 240.266769,290.939484 240.139084,291.370056 
	C234.957565,291.370056 229.774902,291.300201 224.594742,291.383850 
	C211.717407,291.591705 211.575027,289.080414 215.759979,303.427795 
	C219.979034,317.892151 227.921295,329.800690 243.607391,334.172577 
	C247.085648,335.141998 250.759216,335.410645 254.378494,336.723785 
	C250.402527,339.251862 246.177658,337.422241 241.633118,336.650635 
M281.142151,297.541656 
	C295.334900,299.026855 303.716125,296.461365 309.758972,277.748505 
	C309.912262,277.273865 310.058197,276.795868 310.183075,276.313110 
	C316.423981,252.185547 304.340668,228.173615 282.620483,222.769180 
	C267.911407,219.109283 253.532959,221.170471 239.960861,228.095551 
	C233.651505,231.314865 233.029663,232.896088 235.175385,240.117615 
	C245.633606,240.051987 252.805130,234.238403 259.344055,226.525436 
	C259.344055,230.666183 259.343872,234.806915 259.344086,238.947662 
	C259.344879,253.503799 259.345947,253.440582 273.969360,253.676605 
	C277.618408,253.735489 281.404846,252.937073 285.476562,254.562729 
	C280.146637,258.598572 279.126984,263.824280 279.197784,269.553192 
	C279.290436,277.048645 279.181183,284.546417 279.235168,292.042633 
	C279.247925,293.812347 278.756439,295.759216 281.142151,297.541656 
M279.410431,302.203705 
	C279.344574,313.531647 279.103729,324.861938 279.256805,336.186920 
	C279.451538,350.593170 276.264130,348.881470 292.352539,348.696289 
	C301.695648,348.588745 308.243561,342.948181 310.654144,333.861389 
	C311.696075,329.933807 311.687500,325.969818 311.687500,321.969574 
	C311.687469,304.378235 294.863281,298.035950 279.410431,302.203705 
z"/>
<path fill="#000000" opacity="1.000000" stroke="none" 
	d="
M179.613800,307.724365 
	C177.992966,306.946686 176.668015,306.022217 175.211182,305.005737 
	C173.749207,307.495117 172.068924,309.442261 169.004974,307.200592 
	C167.978012,306.449249 166.817123,306.215698 165.760254,307.019073 
	C163.685883,308.595947 161.710251,309.369049 159.650604,307.003876 
	C159.403748,306.720398 158.546402,306.501709 158.433258,306.637451 
	C156.122009,309.410461 153.757492,308.096832 151.342361,306.848297 
	C149.776764,306.038940 148.598465,307.557556 146.799164,307.789764 
	C146.732819,304.369995 148.391632,301.871338 150.134140,299.322968 
	C152.764694,299.654083 152.340302,302.612518 154.316757,303.636597 
	C155.912521,302.003082 154.932327,298.075470 159.085083,298.553314 
	C164.434891,299.168884 160.267654,303.950378 162.532364,305.897278 
	C165.337738,304.455414 164.808212,300.636536 167.476212,299.279816 
	C169.822052,300.614380 169.722122,303.426605 171.490036,305.125488 
	C173.147888,303.516205 171.987823,300.985199 173.354126,299.317291 
	C175.386810,299.076324 176.044800,301.079437 177.471283,301.790955 
	C178.966614,302.345490 178.306671,299.517212 180.047958,300.287872 
	C180.383514,302.687683 180.675674,305.132935 179.613800,307.724365 
z"/>
<path fill="#000000" opacity="1.000000" stroke="none" 
	d="
M166.290115,321.472565 
	C164.427261,319.364868 163.557465,321.373230 162.374908,321.945862 
	C160.285202,322.957794 158.202103,323.150177 156.412430,321.313324 
	C154.883667,319.744293 154.397064,317.874939 155.277374,315.821716 
	C156.229095,313.601959 158.363861,311.784851 160.324677,312.804657 
	C163.927124,314.678192 167.031235,313.237579 170.357376,312.702454 
	C171.130569,312.578003 172.017258,312.591309 172.687912,313.841675 
	C170.385284,314.964935 165.830048,314.854950 167.832733,319.146088 
	C169.235779,322.152405 170.594467,318.319244 172.235519,318.347107 
	C173.667542,319.265503 173.595352,320.787415 172.593887,321.620850 
	C170.758743,323.148071 168.570648,322.745117 166.290115,321.472565 
M159.112823,315.147156 
	C157.060455,316.578125 156.903702,318.262543 158.660141,319.973541 
	C159.510437,320.801819 160.657562,320.450409 161.138184,319.519379 
	C162.102585,317.651245 162.510071,315.752808 159.112823,315.147156 
z"/>
<path fill="#000000" opacity="1.000000" stroke="none" 
	d="
M144.442200,312.773926 
	C148.733810,314.199341 147.699280,317.679260 147.585815,320.341858 
	C147.498428,322.392120 142.700851,323.009583 141.304810,321.336334 
	C139.368759,319.015839 141.036697,313.772522 144.442200,312.773926 
z"/>
<path fill="#000000" opacity="1.000000" stroke="none" 
	d="
M180.248413,321.146484 
	C178.847244,322.647095 177.431213,322.587250 175.532120,321.919830 
	C176.070389,320.656097 178.384842,319.388123 176.000977,317.843597 
	C174.687103,316.992371 173.838791,315.539764 174.870407,314.001617 
	C175.959656,312.377563 177.664719,312.537018 179.847748,313.244751 
	C176.450180,316.156525 182.036865,318.002991 180.248413,321.146484 
z"/>
<path fill="#000000" opacity="1.000000" stroke="none" 
	d="
M144.629364,303.608215 
	C143.391098,304.944824 143.552719,307.022919 141.514816,307.936279 
	C140.165527,305.101288 140.123199,302.251740 141.232620,299.813263 
	C142.055374,298.004883 144.259598,298.485229 146.067810,299.221130 
	C146.153305,300.842560 142.991028,301.281738 144.629364,303.608215 
z"/>
<path fill="#000000" opacity="1.000000" stroke="none" 
	d="
M152.181030,322.295532 
	C146.555252,320.294739 149.436600,316.716431 149.995102,313.548096 
	C152.039001,316.068024 150.936630,319.765503 153.480484,322.022034 
	C153.167679,322.110291 152.854858,322.198547 152.181030,322.295532 
z"/>
</svg>